<svg xmlns="http://www.w3.org/2000/svg" xmlns:xlink="http://www.w3.org/1999/xlink" width="1000" zoomAndPan="magnify" viewBox="0 0 750 749.999995" height="1000" preserveAspectRatio="xMidYMid meet" version="1.0"><defs><clipPath id="8d08988ecd"><path d="M 17.746094 124 L 575 124 L 575 750 L 17.746094 750 Z M 17.746094 124 " clip-rule="nonzero"/></clipPath><clipPath id="e355643b6b"><path d="M 175 0 L 732.496094 0 L 732.496094 626 L 175 626 Z M 175 0 " clip-rule="nonzero"/></clipPath></defs><g clip-path="url(#8d08988ecd)"><path fill="#68c4ff" d="M 277.988281 128.914062 C 315.96875 115.886719 357.324219 136.125 370.351562 174.121094 C 383.367188 212.101562 363.128906 253.46875 325.132812 266.484375 C 287.136719 279.511719 245.785156 259.257812 232.769531 221.265625 C 219.753906 183.269531 239.992188 141.917969 277.988281 128.902344 Z M 448.042969 198.757812 C 497.871094 181.671875 552.109375 208.226562 569.191406 258.054688 C 586.261719 307.882812 559.722656 362.121094 509.894531 379.203125 C 460.066406 396.285156 405.828125 369.734375 388.746094 319.90625 C 371.664062 270.078125 398.214844 215.839844 448.042969 198.757812 Z M 280.234375 692.417969 C 295.613281 687.144531 312.363281 695.339844 317.636719 710.730469 C 322.910156 726.109375 314.71875 742.863281 299.324219 748.132812 C 283.945312 753.40625 267.195312 745.214844 261.921875 729.824219 C 256.648438 714.441406 264.839844 697.691406 280.234375 692.417969 Z M 183.578125 663.480469 C 200.992188 657.507812 219.929688 666.789062 225.902344 684.191406 C 231.871094 701.605469 222.589844 720.542969 205.1875 726.511719 C 187.777344 732.484375 168.835938 723.203125 162.867188 705.789062 C 156.898438 688.386719 166.179688 669.4375 183.589844 663.46875 Z M 94.253906 593.683594 C 113.878906 586.957031 135.242188 597.40625 141.957031 617.03125 C 148.683594 636.65625 138.230469 658.015625 118.605469 664.730469 C 98.984375 671.457031 77.632812 660.996094 70.90625 641.371094 C 64.179688 621.75 74.628906 600.398438 94.253906 593.671875 Z M 49.09375 474.496094 C 72.207031 466.578125 97.375 478.894531 105.296875 502.007812 C 113.214844 525.117188 100.898438 550.285156 77.785156 558.207031 C 54.675781 566.128906 29.519531 553.808594 21.585938 530.699219 C 13.664062 507.585938 25.984375 482.417969 49.09375 474.496094 Z M 52.394531 330.261719 C 79.160156 321.085938 108.296875 335.34375 117.472656 362.121094 C 126.644531 388.882812 112.390625 418.023438 85.613281 427.199219 C 58.847656 436.371094 29.707031 422.105469 20.535156 395.339844 C 11.359375 368.574219 25.628906 339.433594 52.394531 330.261719 Z M 120.25 198.246094 C 151.175781 187.644531 184.84375 204.136719 195.449219 235.0625 C 206.039062 265.984375 189.5625 299.65625 158.636719 310.257812 C 127.710938 320.863281 94.042969 304.382812 83.4375 273.457031 C 72.832031 242.519531 89.3125 208.863281 120.238281 198.257812 Z M 120.25 198.246094 " fill-opacity="1" fill-rule="evenodd"/></g><g clip-path="url(#e355643b6b)"><path fill="#58cb7f" d="M 472.003906 621.097656 C 434.011719 634.125 392.65625 613.875 379.640625 575.878906 C 366.625 537.898438 386.867188 496.53125 424.859375 483.515625 C 462.855469 470.5 504.207031 490.742188 517.222656 528.722656 C 530.238281 566.71875 510 608.070312 472.003906 621.085938 Z M 301.949219 551.242188 C 252.121094 568.328125 197.882812 541.773438 180.800781 491.945312 C 163.71875 442.117188 190.269531 387.878906 240.097656 370.796875 C 289.925781 353.714844 344.164062 380.265625 361.246094 430.09375 C 378.332031 479.921875 351.777344 534.160156 301.949219 551.242188 Z M 469.769531 57.582031 C 454.390625 62.855469 437.640625 54.660156 432.367188 39.269531 C 427.09375 23.890625 435.285156 7.136719 450.679688 1.867188 C 466.058594 -3.40625 482.808594 4.785156 488.082031 20.175781 C 493.355469 35.558594 485.164062 52.308594 469.769531 57.582031 Z M 566.414062 86.53125 C 549.011719 92.492188 530.0625 83.222656 524.089844 65.808594 C 518.132812 48.394531 527.402344 29.445312 544.816406 23.488281 C 562.230469 17.515625 581.179688 26.796875 587.136719 44.210938 C 593.105469 61.613281 583.828125 80.5625 566.414062 86.53125 Z M 655.75 156.328125 C 636.125 163.054688 614.777344 152.59375 608.050781 132.96875 C 601.324219 113.34375 611.773438 91.996094 631.410156 85.269531 C 651.019531 78.542969 672.382812 89.003906 679.109375 108.628906 C 685.835938 128.25 675.375 149.613281 655.75 156.328125 Z M 700.910156 275.503906 C 677.796875 283.421875 652.628906 271.105469 644.707031 247.992188 C 636.777344 224.882812 649.105469 199.714844 672.207031 191.804688 C 695.316406 183.882812 720.472656 196.203125 728.40625 219.3125 C 736.328125 242.4375 724.007812 267.59375 700.898438 275.515625 Z M 697.609375 419.75 C 670.835938 428.925781 641.707031 414.667969 632.53125 387.890625 C 623.359375 361.128906 637.617188 331.988281 664.378906 322.8125 C 691.15625 313.640625 720.285156 327.910156 729.457031 354.671875 C 738.632812 381.4375 724.375 410.578125 697.609375 419.75 Z M 629.742188 551.765625 C 598.816406 562.367188 565.148438 545.886719 554.542969 514.953125 C 543.941406 484.015625 560.421875 450.355469 591.355469 439.753906 C 622.28125 429.148438 655.953125 445.628906 666.554688 476.566406 C 677.160156 507.492188 660.679688 541.160156 629.742188 551.765625 Z M 629.742188 551.765625 " fill-opacity="1" fill-rule="evenodd"/></g></svg>